<mxfile host="app.diagrams.net" modified="2023-03-15T16:26:59.306Z" agent="5.0 (Macintosh; Intel Mac OS X 10_15_7) AppleWebKit/537.36 (KHTML, like Gecko) Chrome/111.0.0.0 Safari/537.36" etag="qODBMYoUholAXHb986Vv" version="21.0.6" type="github">
  <diagram id="C5RBs43oDa-KdzZeNtuy" name="Page-1">
    <mxGraphModel dx="634" dy="1143" grid="1" gridSize="10" guides="1" tooltips="1" connect="1" arrows="1" fold="1" page="1" pageScale="1" pageWidth="827" pageHeight="1169" math="0" shadow="0">
      <root>
        <mxCell id="WIyWlLk6GJQsqaUBKTNV-0" />
        <mxCell id="WIyWlLk6GJQsqaUBKTNV-1" parent="WIyWlLk6GJQsqaUBKTNV-0" />
        <mxCell id="aUGPTNDTNztrse9PuVuU-0" value="a" style="rounded=0;whiteSpace=wrap;html=1;fontSize=22;" vertex="1" parent="WIyWlLk6GJQsqaUBKTNV-1">
          <mxGeometry x="100" y="140" width="60" height="60" as="geometry" />
        </mxCell>
        <mxCell id="aUGPTNDTNztrse9PuVuU-1" value="b" style="rounded=0;whiteSpace=wrap;html=1;fontSize=22;" vertex="1" parent="WIyWlLk6GJQsqaUBKTNV-1">
          <mxGeometry x="160" y="140" width="60" height="60" as="geometry" />
        </mxCell>
        <mxCell id="aUGPTNDTNztrse9PuVuU-2" value="c" style="rounded=0;whiteSpace=wrap;html=1;fontSize=22;" vertex="1" parent="WIyWlLk6GJQsqaUBKTNV-1">
          <mxGeometry x="220" y="140" width="60" height="60" as="geometry" />
        </mxCell>
        <mxCell id="aUGPTNDTNztrse9PuVuU-3" value="d" style="rounded=0;whiteSpace=wrap;html=1;fontSize=22;" vertex="1" parent="WIyWlLk6GJQsqaUBKTNV-1">
          <mxGeometry x="280" y="140" width="60" height="60" as="geometry" />
        </mxCell>
        <mxCell id="aUGPTNDTNztrse9PuVuU-4" value="e" style="rounded=0;whiteSpace=wrap;html=1;fontSize=22;" vertex="1" parent="WIyWlLk6GJQsqaUBKTNV-1">
          <mxGeometry x="340" y="140" width="60" height="60" as="geometry" />
        </mxCell>
        <mxCell id="aUGPTNDTNztrse9PuVuU-5" value="f" style="rounded=0;whiteSpace=wrap;html=1;fontSize=22;" vertex="1" parent="WIyWlLk6GJQsqaUBKTNV-1">
          <mxGeometry x="400" y="140" width="60" height="60" as="geometry" />
        </mxCell>
        <mxCell id="aUGPTNDTNztrse9PuVuU-6" value="g" style="rounded=0;whiteSpace=wrap;html=1;fontSize=22;" vertex="1" parent="WIyWlLk6GJQsqaUBKTNV-1">
          <mxGeometry x="460" y="140" width="60" height="60" as="geometry" />
        </mxCell>
        <mxCell id="aUGPTNDTNztrse9PuVuU-7" value="l" style="rounded=0;whiteSpace=wrap;html=1;fontSize=22;" vertex="1" parent="WIyWlLk6GJQsqaUBKTNV-1">
          <mxGeometry x="600" y="140" width="60" height="60" as="geometry" />
        </mxCell>
        <mxCell id="aUGPTNDTNztrse9PuVuU-11" value="" style="shape=waypoint;sketch=0;size=6;pointerEvents=1;points=[];fillColor=none;resizable=0;rotatable=0;perimeter=centerPerimeter;snapToPoint=1;" vertex="1" parent="WIyWlLk6GJQsqaUBKTNV-1">
          <mxGeometry x="530" y="160" width="20" height="20" as="geometry" />
        </mxCell>
        <mxCell id="aUGPTNDTNztrse9PuVuU-12" value="" style="shape=waypoint;sketch=0;size=6;pointerEvents=1;points=[];fillColor=none;resizable=0;rotatable=0;perimeter=centerPerimeter;snapToPoint=1;" vertex="1" parent="WIyWlLk6GJQsqaUBKTNV-1">
          <mxGeometry x="550" y="160" width="20" height="20" as="geometry" />
        </mxCell>
        <mxCell id="aUGPTNDTNztrse9PuVuU-13" value="" style="shape=waypoint;sketch=0;size=6;pointerEvents=1;points=[];fillColor=none;resizable=0;rotatable=0;perimeter=centerPerimeter;snapToPoint=1;" vertex="1" parent="WIyWlLk6GJQsqaUBKTNV-1">
          <mxGeometry x="570" y="160" width="20" height="20" as="geometry" />
        </mxCell>
        <mxCell id="aUGPTNDTNztrse9PuVuU-15" value="j" style="rounded=0;whiteSpace=wrap;html=1;fontSize=22;" vertex="1" parent="WIyWlLk6GJQsqaUBKTNV-1">
          <mxGeometry x="660" y="140" width="60" height="60" as="geometry" />
        </mxCell>
        <mxCell id="aUGPTNDTNztrse9PuVuU-16" value="k" style="rounded=0;whiteSpace=wrap;html=1;fontSize=22;" vertex="1" parent="WIyWlLk6GJQsqaUBKTNV-1">
          <mxGeometry x="720" y="140" width="60" height="60" as="geometry" />
        </mxCell>
      </root>
    </mxGraphModel>
  </diagram>
</mxfile>
